<svg xmlns="http://www.w3.org/2000/svg" width="15.802" height="26.206" viewBox="0 0 15.802 26.206"><path id="Path_1704" data-name="Path 1704" d="M1216.125,827.394c-1.488-1.492-2.869-2.9-4.278-4.278a2.613,2.613,0,0,1-.846-2.031c.027-1.352.006-2.705.008-4.057a2.131,2.131,0,0,1,3.738-1.547q5.1,5.094,10.2,10.191a2.146,2.146,0,0,1,.005,3.307q-5.081,5.082-10.166,10.161a2.132,2.132,0,0,1-2.454.609,2.168,2.168,0,0,1-1.314-2.166c0-1.353.012-2.706-.005-4.058a2.5,2.5,0,0,1,.79-1.926c1.319-1.292,2.615-2.607,3.923-3.909A3.492,3.492,0,0,1,1216.125,827.394Zm1.134-.065c-.122.128-.225.241-.333.348-1.515,1.515-3.025,3.033-4.548,4.54a1.671,1.671,0,0,0-.529,1.28c.015,1.38.011,2.762,0,4.142a1.292,1.292,0,0,0,.786,1.325,1.266,1.266,0,0,0,1.492-.37q5.14-5.144,10.283-10.284a1.266,1.266,0,0,0,0-1.968q-5.139-5.145-10.284-10.284a1.261,1.261,0,0,0-1.492-.365,1.3,1.3,0,0,0-.781,1.328c.009,1.367.015,2.734,0,4.1a1.751,1.751,0,0,0,.562,1.351c1.515,1.494,3.014,3,4.519,4.51C1217.036,827.09,1217.138,827.2,1217.258,827.329Z" transform="translate(-1210.5 -814.222)" fill="#fff" stroke="#fff" stroke-linecap="round" stroke-linejoin="round" stroke-width="1"></path></svg>